<svg width="39" height="20" viewBox="0 0 39 20" fill="none" xmlns="http://www.w3.org/2000/svg">
<path d="M0.66 20V19.7L1.29 19.46C1.69 19.32 1.95 19.13 2.07 18.89C2.19 18.65 2.25 18.34 2.25 17.96V2.27C2.25 1.87 2.19 1.55 2.07 1.31C1.95 1.07 1.69 0.879999 1.29 0.739999L0.66 0.499999V0.199999H8.13V0.499999L7.47 0.769999C7.13 0.889999 6.9 1.07 6.78 1.31C6.66 1.55 6.6 1.88 6.6 2.3V17.99C6.6 18.39 6.66 18.7 6.78 18.92C6.92 19.14 7.18 19.32 7.56 19.46L8.13 19.7V20H0.66ZM11.73 20V19.7L12.12 19.58C12.52 19.46 12.73 19.26 12.75 18.98C12.77 18.7 12.65 18.38 12.39 18.02L6.63 9.83L14.22 2.09C14.5 1.81 14.65 1.54 14.67 1.28C14.71 1.02 14.52 0.819999 14.1 0.679998L13.59 0.499999V0.199999H17.97V0.499999L17.19 0.739999C16.75 0.879999 16.4 1.05 16.14 1.25C15.88 1.45 15.58 1.72 15.24 2.06L9.87 7.55L16.92 17.84C17.22 18.28 17.5 18.64 17.76 18.92C18.04 19.2 18.43 19.42 18.93 19.58L19.35 19.7V20H11.73ZM20.2889 20V19.7L20.9189 19.46C21.5589 19.2 21.8789 18.69 21.8789 17.93V2.27C21.8789 1.47 21.5589 0.959999 20.9189 0.739999L20.2889 0.499999V0.199999H28.2089C30.3289 0.199999 32.1489 0.599999 33.6689 1.4C35.2089 2.18 36.3889 3.31 37.2089 4.79C38.0489 6.25 38.4689 8.01 38.4689 10.07C38.4689 12.17 38.0189 13.96 37.1189 15.44C36.2189 16.92 34.9589 18.05 33.3389 18.83C31.7389 19.61 29.8489 20 27.6689 20H20.2889ZM26.3789 19.4H27.6689C29.1089 19.4 30.2689 19.12 31.1489 18.56C32.0289 17.98 32.6689 17.02 33.0689 15.68C33.4889 14.32 33.6989 12.46 33.6989 10.1C33.6989 7.74 33.4889 5.89 33.0689 4.55C32.6689 3.19 32.0389 2.23 31.1789 1.67C30.3189 1.09 29.1889 0.799999 27.7889 0.799999H26.3789V19.4Z" fill="#6198FE"/>
</svg>
